<?xml version="1.0" encoding="utf-8" ?>
<svg baseProfile="full" height="1020" version="1.1" width="1250" xmlns="http://www.w3.org/2000/svg" xmlns:ev="http://www.w3.org/2001/xml-events" xmlns:xlink="http://www.w3.org/1999/xlink"><defs /><rect fill="white" height="1020" width="1250" x="0" y="0" /><text fill="#045694" font-family="DejaVu Sans" font-size="40" font-weight="bold" text-anchor="middle" x="625.0" y="70">SELECCIÓN DE CARACTERÍSTICAS</text><text fill="#333333" font-family="DejaVu Sans" font-size="23" font-weight="normal" text-anchor="middle" x="625.0" y="110">Búsqueda del conjunto óptimo de variables</text><line stroke="#045694" stroke-linecap="round" stroke-width="5" x1="560.0" x2="690.0" y1="132" y2="132" /><line stroke="#D6DEE6" stroke-dasharray="6,6" stroke-width="1.5" x1="120" x2="850" y1="590.0" y2="590.0" /><text fill="#333333" font-family="DejaVu Sans" font-size="17" font-weight="normal" text-anchor="end" x="98" y="596.0">0.464</text><line stroke="#D6DEE6" stroke-dasharray="6,6" stroke-width="1.5" x1="120" x2="850" y1="492.5000000000002" y2="492.5000000000002" /><text fill="#333333" font-family="DejaVu Sans" font-size="17" font-weight="normal" text-anchor="end" x="98" y="498.5000000000002">0.470</text><line stroke="#D6DEE6" stroke-dasharray="6,6" stroke-width="1.5" x1="120" x2="850" y1="394.99999999999955" y2="394.99999999999955" /><text fill="#333333" font-family="DejaVu Sans" font-size="17" font-weight="normal" text-anchor="end" x="98" y="400.99999999999955">0.476</text><line stroke="#D6DEE6" stroke-dasharray="6,6" stroke-width="1.5" x1="120" x2="850" y1="297.4999999999998" y2="297.4999999999998" /><text fill="#333333" font-family="DejaVu Sans" font-size="17" font-weight="normal" text-anchor="end" x="98" y="303.4999999999998">0.483</text><line stroke="#D6DEE6" stroke-dasharray="6,6" stroke-width="1.5" x1="120" x2="850" y1="200.0" y2="200.0" /><text fill="#333333" font-family="DejaVu Sans" font-size="17" font-weight="normal" text-anchor="end" x="98" y="206.0">0.489</text><line stroke="#045694" stroke-width="3" x1="120" x2="885" y1="590" y2="590" /><line stroke="#045694" stroke-width="3" x1="120" x2="120" y1="590" y2="175" /><polygon fill="#045694" points="885,590 865,580 865,600" /><polygon fill="#045694" points="120,175 110,195 130,195" /><text fill="#045694" font-family="DejaVu Sans" font-size="19" font-weight="bold" text-anchor="start" x="75" y="158">F1 Macro</text><text fill="#045694" font-family="DejaVu Sans" font-size="19" font-weight="bold" text-anchor="middle" x="485.0" y="662">Número de variables</text><line stroke="#045694" stroke-dasharray="7,4" stroke-width="2.5" x1="120.0" x2="214.8051948051948" y1="448.4677419354846" y2="542.8225806451612" /><line stroke="#045694" stroke-dasharray="7,4" stroke-width="2.5" x1="214.8051948051948" x2="309.6103896103896" y1="542.8225806451612" y2="247.17741935483878" /><line stroke="#045694" stroke-dasharray="7,4" stroke-width="2.5" x1="309.6103896103896" x2="404.4155844155844" y1="247.17741935483878" y2="328.9516129032256" /><line stroke="#045694" stroke-dasharray="7,4" stroke-width="2.5" x1="404.4155844155844" x2="499.2207792207792" y1="328.9516129032256" y2="361.9758064516135" /><line stroke="#045694" stroke-dasharray="7,4" stroke-width="2.5" x1="499.2207792207792" x2="594.0259740259739" y1="361.9758064516135" y2="349.3951612903228" /><line stroke="#045694" stroke-dasharray="7,4" stroke-width="2.5" x1="594.0259740259739" x2="850.0" y1="349.3951612903228" y2="417.01612903225873" /><line stroke="#BFC7CE" stroke-dasharray="6,6" stroke-width="1.5" x1="120.0" x2="120.0" y1="448.4677419354846" y2="590" /><g transform="translate(103.0,431.4677419354846) scale(0.1328125)"><path d="M128,24A104,104,0,1,0,232,128,104.11,104.11,0,0,0,128,24Zm76.52,147.42H170.9l-9.26-12.76,12.63-36.78,15-4.89,26.24,20.13A87.38,87.38,0,0,1,204.52,171.42Zm-164-34.3L66.71,117l15,4.89,12.63,36.78L85.1,171.42H51.48A87.38,87.38,0,0,1,40.47,137.12Zm10-50.64,5.51,18.6L40.71,116.77A87.33,87.33,0,0,1,50.43,86.48ZM109,152,97.54,118.65,128,97.71l30.46,20.94L147,152Zm91.07-46.92,5.51-18.6a87.33,87.33,0,0,1,9.72,30.29Zm-6.2-35.38-9.51,32.08-15.07,4.89L136,83.79V68.21l29.09-20A88.58,88.58,0,0,1,193.86,69.7ZM146.07,41.87,128,54.29,109.93,41.87a88.24,88.24,0,0,1,36.14,0ZM90.91,48.21l29.09,20V83.79L86.72,106.67l-15.07-4.89L62.14,69.7A88.58,88.58,0,0,1,90.91,48.21ZM63.15,187.42H83.52l7.17,20.27A88.4,88.4,0,0,1,63.15,187.42ZM110,214.13,98.12,180.71,107.35,168h41.3l9.23,12.71-11.83,33.42a88,88,0,0,1-36.1,0Zm55.36-6.44,7.17-20.27h20.37A88.4,88.4,0,0,1,165.31,207.69Z" fill="#045694" stroke="none" /></g><text fill="#045694" font-family="DejaVu Sans" font-size="16" font-weight="bold" text-anchor="middle" x="120.0" y="420.4677419354846">0.4730</text><text fill="#333333" font-family="DejaVu Sans" font-size="17" font-weight="bold" text-anchor="middle" x="120.0" y="618">10</text><text fill="#333333" font-family="DejaVu Sans" font-size="15" font-weight="normal" text-anchor="middle" x="120.0" y="642">(Top10)</text><line stroke="#BFC7CE" stroke-dasharray="6,6" stroke-width="1.5" x1="214.8051948051948" x2="214.8051948051948" y1="542.8225806451612" y2="590" /><g transform="translate(197.8051948051948,525.8225806451612) scale(0.1328125)"><path d="M128,24A104,104,0,1,0,232,128,104.11,104.11,0,0,0,128,24Zm76.52,147.42H170.9l-9.26-12.76,12.63-36.78,15-4.89,26.24,20.13A87.38,87.38,0,0,1,204.52,171.42Zm-164-34.3L66.71,117l15,4.89,12.63,36.78L85.1,171.42H51.48A87.38,87.38,0,0,1,40.47,137.12Zm10-50.64,5.51,18.6L40.71,116.77A87.33,87.33,0,0,1,50.43,86.48ZM109,152,97.54,118.65,128,97.71l30.46,20.94L147,152Zm91.07-46.92,5.51-18.6a87.33,87.33,0,0,1,9.72,30.29Zm-6.2-35.38-9.51,32.08-15.07,4.89L136,83.79V68.21l29.09-20A88.58,88.58,0,0,1,193.86,69.7ZM146.07,41.87,128,54.29,109.93,41.87a88.24,88.24,0,0,1,36.14,0ZM90.91,48.21l29.09,20V83.79L86.72,106.67l-15.07-4.89L62.14,69.7A88.58,88.58,0,0,1,90.91,48.21ZM63.15,187.42H83.52l7.17,20.27A88.4,88.4,0,0,1,63.15,187.42ZM110,214.13,98.12,180.71,107.35,168h41.3l9.23,12.71-11.83,33.42a88,88,0,0,1-36.1,0Zm55.36-6.44,7.17-20.27h20.37A88.4,88.4,0,0,1,165.31,207.69Z" fill="#045694" stroke="none" /></g><text fill="#045694" font-family="DejaVu Sans" font-size="16" font-weight="bold" text-anchor="middle" x="214.8051948051948" y="514.8225806451612">0.4670</text><text fill="#333333" font-family="DejaVu Sans" font-size="17" font-weight="bold" text-anchor="middle" x="214.8051948051948" y="618">20</text><text fill="#333333" font-family="DejaVu Sans" font-size="15" font-weight="normal" text-anchor="middle" x="214.8051948051948" y="642">(Top20)</text><line stroke="#BFC7CE" stroke-dasharray="6,6" stroke-width="1.5" x1="309.6103896103896" x2="309.6103896103896" y1="247.17741935483878" y2="590" /><g transform="translate(292.6103896103896,230.17741935483878) scale(0.1328125)"><path d="M128,24A104,104,0,1,0,232,128,104.11,104.11,0,0,0,128,24Zm76.52,147.42H170.9l-9.26-12.76,12.63-36.78,15-4.89,26.24,20.13A87.38,87.38,0,0,1,204.52,171.42Zm-164-34.3L66.71,117l15,4.89,12.63,36.78L85.1,171.42H51.48A87.38,87.38,0,0,1,40.47,137.12Zm10-50.64,5.51,18.6L40.71,116.77A87.33,87.33,0,0,1,50.43,86.48ZM109,152,97.54,118.65,128,97.71l30.46,20.94L147,152Zm91.07-46.92,5.51-18.6a87.33,87.33,0,0,1,9.72,30.29Zm-6.2-35.38-9.51,32.08-15.07,4.89L136,83.79V68.21l29.09-20A88.58,88.58,0,0,1,193.86,69.7ZM146.07,41.87,128,54.29,109.93,41.87a88.24,88.24,0,0,1,36.14,0ZM90.91,48.21l29.09,20V83.79L86.72,106.67l-15.07-4.89L62.14,69.7A88.58,88.58,0,0,1,90.91,48.21ZM63.15,187.42H83.52l7.17,20.27A88.4,88.4,0,0,1,63.15,187.42ZM110,214.13,98.12,180.71,107.35,168h41.3l9.23,12.71-11.83,33.42a88,88,0,0,1-36.1,0Zm55.36-6.44,7.17-20.27h20.37A88.4,88.4,0,0,1,165.31,207.69Z" fill="#045694" stroke="none" /></g><text fill="#045694" font-family="DejaVu Sans" font-size="16" font-weight="bold" text-anchor="middle" x="309.6103896103896" y="159.17741935483878">0.4858</text><text fill="#333333" font-family="DejaVu Sans" font-size="17" font-weight="bold" text-anchor="middle" x="309.6103896103896" y="618">30</text><text fill="#333333" font-family="DejaVu Sans" font-size="15" font-weight="normal" text-anchor="middle" x="309.6103896103896" y="642">(Top30)</text><line stroke="#BFC7CE" stroke-dasharray="6,6" stroke-width="1.5" x1="404.4155844155844" x2="404.4155844155844" y1="328.9516129032256" y2="590" /><g transform="translate(387.4155844155844,311.9516129032256) scale(0.1328125)"><path d="M128,24A104,104,0,1,0,232,128,104.11,104.11,0,0,0,128,24Zm76.52,147.42H170.9l-9.26-12.76,12.63-36.78,15-4.89,26.24,20.13A87.38,87.38,0,0,1,204.52,171.42Zm-164-34.3L66.71,117l15,4.89,12.63,36.78L85.1,171.42H51.48A87.38,87.38,0,0,1,40.47,137.12Zm10-50.64,5.51,18.6L40.71,116.77A87.33,87.33,0,0,1,50.43,86.48ZM109,152,97.54,118.65,128,97.71l30.46,20.94L147,152Zm91.07-46.92,5.51-18.6a87.33,87.33,0,0,1,9.72,30.29Zm-6.2-35.38-9.51,32.08-15.07,4.89L136,83.79V68.21l29.09-20A88.58,88.58,0,0,1,193.86,69.7ZM146.07,41.87,128,54.29,109.93,41.87a88.24,88.24,0,0,1,36.14,0ZM90.91,48.21l29.09,20V83.79L86.72,106.67l-15.07-4.89L62.14,69.7A88.58,88.58,0,0,1,90.91,48.21ZM63.15,187.42H83.52l7.17,20.27A88.4,88.4,0,0,1,63.15,187.42ZM110,214.13,98.12,180.71,107.35,168h41.3l9.23,12.71-11.83,33.42a88,88,0,0,1-36.1,0Zm55.36-6.44,7.17-20.27h20.37A88.4,88.4,0,0,1,165.31,207.69Z" fill="#045694" stroke="none" /></g><text fill="#045694" font-family="DejaVu Sans" font-size="16" font-weight="bold" text-anchor="middle" x="404.4155844155844" y="300.9516129032256">0.4806</text><text fill="#333333" font-family="DejaVu Sans" font-size="17" font-weight="bold" text-anchor="middle" x="404.4155844155844" y="618">40</text><text fill="#333333" font-family="DejaVu Sans" font-size="15" font-weight="normal" text-anchor="middle" x="404.4155844155844" y="642">(Top40)</text><line stroke="#BFC7CE" stroke-dasharray="6,6" stroke-width="1.5" x1="499.2207792207792" x2="499.2207792207792" y1="361.9758064516135" y2="590" /><g transform="translate(482.2207792207792,344.9758064516135) scale(0.1328125)"><path d="M128,24A104,104,0,1,0,232,128,104.11,104.11,0,0,0,128,24Zm76.52,147.42H170.9l-9.26-12.76,12.63-36.78,15-4.89,26.24,20.13A87.38,87.38,0,0,1,204.52,171.42Zm-164-34.3L66.71,117l15,4.89,12.63,36.78L85.1,171.42H51.48A87.38,87.38,0,0,1,40.47,137.12Zm10-50.64,5.51,18.6L40.71,116.77A87.33,87.33,0,0,1,50.43,86.48ZM109,152,97.54,118.65,128,97.71l30.46,20.94L147,152Zm91.07-46.92,5.51-18.6a87.33,87.33,0,0,1,9.72,30.29Zm-6.2-35.38-9.51,32.08-15.07,4.89L136,83.79V68.21l29.09-20A88.58,88.58,0,0,1,193.86,69.7ZM146.07,41.87,128,54.29,109.93,41.87a88.24,88.24,0,0,1,36.14,0ZM90.91,48.21l29.09,20V83.79L86.72,106.67l-15.07-4.89L62.14,69.7A88.58,88.58,0,0,1,90.91,48.21ZM63.15,187.42H83.52l7.17,20.27A88.4,88.4,0,0,1,63.15,187.42ZM110,214.13,98.12,180.71,107.35,168h41.3l9.23,12.71-11.83,33.42a88,88,0,0,1-36.1,0Zm55.36-6.44,7.17-20.27h20.37A88.4,88.4,0,0,1,165.31,207.69Z" fill="#045694" stroke="none" /></g><text fill="#045694" font-family="DejaVu Sans" font-size="16" font-weight="bold" text-anchor="middle" x="499.2207792207792" y="333.9758064516135">0.4785</text><text fill="#333333" font-family="DejaVu Sans" font-size="17" font-weight="bold" text-anchor="middle" x="499.2207792207792" y="618">50</text><text fill="#333333" font-family="DejaVu Sans" font-size="15" font-weight="normal" text-anchor="middle" x="499.2207792207792" y="642">(Top50)</text><line stroke="#BFC7CE" stroke-dasharray="6,6" stroke-width="1.5" x1="594.0259740259739" x2="594.0259740259739" y1="349.3951612903228" y2="590" /><g transform="translate(577.0259740259739,332.3951612903228) scale(0.1328125)"><path d="M128,24A104,104,0,1,0,232,128,104.11,104.11,0,0,0,128,24Zm76.52,147.42H170.9l-9.26-12.76,12.63-36.78,15-4.89,26.24,20.13A87.38,87.38,0,0,1,204.52,171.42Zm-164-34.3L66.71,117l15,4.89,12.63,36.78L85.1,171.42H51.48A87.38,87.38,0,0,1,40.47,137.12Zm10-50.64,5.51,18.6L40.71,116.77A87.33,87.33,0,0,1,50.43,86.48ZM109,152,97.54,118.65,128,97.71l30.46,20.94L147,152Zm91.07-46.92,5.51-18.6a87.33,87.33,0,0,1,9.72,30.29Zm-6.2-35.38-9.51,32.08-15.07,4.89L136,83.79V68.21l29.09-20A88.58,88.58,0,0,1,193.86,69.7ZM146.07,41.87,128,54.29,109.93,41.87a88.24,88.24,0,0,1,36.14,0ZM90.91,48.21l29.09,20V83.79L86.72,106.67l-15.07-4.89L62.14,69.7A88.58,88.58,0,0,1,90.91,48.21ZM63.15,187.42H83.52l7.17,20.27A88.4,88.4,0,0,1,63.15,187.42ZM110,214.13,98.12,180.71,107.35,168h41.3l9.23,12.71-11.83,33.42a88,88,0,0,1-36.1,0Zm55.36-6.44,7.17-20.27h20.37A88.4,88.4,0,0,1,165.31,207.69Z" fill="#045694" stroke="none" /></g><text fill="#045694" font-family="DejaVu Sans" font-size="16" font-weight="bold" text-anchor="middle" x="594.0259740259739" y="321.3951612903228">0.4793</text><text fill="#333333" font-family="DejaVu Sans" font-size="17" font-weight="bold" text-anchor="middle" x="594.0259740259739" y="618">60</text><text fill="#333333" font-family="DejaVu Sans" font-size="15" font-weight="normal" text-anchor="middle" x="594.0259740259739" y="642">(Top60)</text><line stroke="#BFC7CE" stroke-dasharray="6,6" stroke-width="1.5" x1="850.0" x2="850.0" y1="417.01612903225873" y2="590" /><g transform="translate(833.0,400.01612903225873) scale(0.1328125)"><path d="M128,24A104,104,0,1,0,232,128,104.11,104.11,0,0,0,128,24Zm76.52,147.42H170.9l-9.26-12.76,12.63-36.78,15-4.89,26.24,20.13A87.38,87.38,0,0,1,204.52,171.42Zm-164-34.3L66.71,117l15,4.89,12.63,36.78L85.1,171.42H51.48A87.38,87.38,0,0,1,40.47,137.12Zm10-50.64,5.51,18.6L40.71,116.77A87.33,87.33,0,0,1,50.43,86.48ZM109,152,97.54,118.65,128,97.71l30.46,20.94L147,152Zm91.07-46.92,5.51-18.6a87.33,87.33,0,0,1,9.72,30.29Zm-6.2-35.38-9.51,32.08-15.07,4.89L136,83.79V68.21l29.09-20A88.58,88.58,0,0,1,193.86,69.7ZM146.07,41.87,128,54.29,109.93,41.87a88.24,88.24,0,0,1,36.14,0ZM90.91,48.21l29.09,20V83.79L86.72,106.67l-15.07-4.89L62.14,69.7A88.58,88.58,0,0,1,90.91,48.21ZM63.15,187.42H83.52l7.17,20.27A88.4,88.4,0,0,1,63.15,187.42ZM110,214.13,98.12,180.71,107.35,168h41.3l9.23,12.71-11.83,33.42a88,88,0,0,1-36.1,0Zm55.36-6.44,7.17-20.27h20.37A88.4,88.4,0,0,1,165.31,207.69Z" fill="#045694" stroke="none" /></g><text fill="#045694" font-family="DejaVu Sans" font-size="16" font-weight="bold" text-anchor="middle" x="850.0" y="389.01612903225873">0.4750</text><text fill="#333333" font-family="DejaVu Sans" font-size="17" font-weight="bold" text-anchor="middle" x="850.0" y="618">87</text><text fill="#333333" font-family="DejaVu Sans" font-size="15" font-weight="normal" text-anchor="middle" x="850.0" y="642">(All)</text><g transform="translate(288.6103896103896,168.17741935483878) scale(1.75)"><path d="M11.525 2.295a.53.53 0 0 1 .95 0l2.31 4.679a2.123 2.123 0 0 0 1.595 1.16l5.166.756a.53.53 0 0 1 .294.904l-3.736 3.638a2.123 2.123 0 0 0-.611 1.878l.882 5.14a.53.53 0 0 1-.771.56l-4.618-2.428a2.122 2.122 0 0 0-1.973 0L6.396 21.01a.53.53 0 0 1-.77-.56l.881-5.139a2.122 2.122 0 0 0-.611-1.879L2.16 9.795a.53.53 0 0 1 .294-.906l5.165-.755a2.122 2.122 0 0 0 1.597-1.16z" fill="none" stroke="#045694" stroke-linecap="round" stroke-linejoin="round" stroke-width="2" /></g><text fill="#B8860B" font-family="DejaVu Sans" font-size="17" font-weight="bold" text-anchor="start" x="343.6103896103896" y="191.17741935483878">MODELO CAMPEÓN</text><rect fill="white" height="335" rx="18" ry="18" stroke="#045694" stroke-width="2" width="290" x="900" y="265" /><text fill="#045694" font-family="DejaVu Sans" font-size="20" font-weight="bold" text-anchor="middle" x="1045.0" y="310">DECISIÓN FINAL</text><line stroke="#045694" stroke-linecap="round" stroke-width="4" x1="945" x2="1145" y1="330" y2="330" /><circle cx="935" cy="368" fill="#045694" r="9" /><text fill="white" font-family="DejaVu Sans" font-size="13" font-weight="bold" text-anchor="middle" x="935" y="373">✓</text><text fill="#333333" font-family="DejaVu Sans" font-size="15" font-weight="normal" text-anchor="start" x="955" y="375">Mejor rendimiento</text><circle cx="935" cy="416" fill="#045694" r="9" /><text fill="white" font-family="DejaVu Sans" font-size="13" font-weight="bold" text-anchor="middle" x="935" y="421">✓</text><text fill="#333333" font-family="DejaVu Sans" font-size="15" font-weight="normal" text-anchor="start" x="955" y="423">Menor complejidad</text><circle cx="935" cy="464" fill="#045694" r="9" /><text fill="white" font-family="DejaVu Sans" font-size="13" font-weight="bold" text-anchor="middle" x="935" y="469">✓</text><text fill="#333333" font-family="DejaVu Sans" font-size="15" font-weight="normal" text-anchor="start" x="955" y="471">Menor tiempo</text><circle cx="935" cy="512" fill="#045694" r="9" /><text fill="white" font-family="DejaVu Sans" font-size="13" font-weight="bold" text-anchor="middle" x="935" y="517">✓</text><text fill="#333333" font-family="DejaVu Sans" font-size="15" font-weight="normal" text-anchor="start" x="955" y="519">Menor riesgo de sobreajuste</text><rect fill="#045694" height="68" stroke="#045694" stroke-width="1.5" width="135" x="120" y="725" /><text fill="white" font-family="DejaVu Sans" font-size="15" font-weight="bold" text-anchor="middle" x="187.5" y="748">Conjunto</text><text fill="white" font-family="DejaVu Sans" font-size="15" font-weight="bold" text-anchor="middle" x="187.5" y="782">Nº variables</text><rect fill="white" height="34" stroke="#BFC7CE" stroke-width="1.2" width="104.28571428571429" x="255.0" y="725" /><text fill="#333333" font-family="DejaVu Sans" font-size="15" font-weight="normal" text-anchor="middle" x="307.14285714285717" y="748">Top10</text><rect fill="white" height="34" stroke="#BFC7CE" stroke-width="1.2" width="104.28571428571429" x="255.0" y="759" /><text fill="#333333" font-family="DejaVu Sans" font-size="15" font-weight="normal" text-anchor="middle" x="307.14285714285717" y="782">10</text><rect fill="white" height="34" stroke="#BFC7CE" stroke-width="1.2" width="104.28571428571429" x="359.2857142857143" y="725" /><text fill="#333333" font-family="DejaVu Sans" font-size="15" font-weight="normal" text-anchor="middle" x="411.42857142857144" y="748">Top20</text><rect fill="white" height="34" stroke="#BFC7CE" stroke-width="1.2" width="104.28571428571429" x="359.2857142857143" y="759" /><text fill="#333333" font-family="DejaVu Sans" font-size="15" font-weight="normal" text-anchor="middle" x="411.42857142857144" y="782">20</text><rect fill="white" height="34" stroke="#BFC7CE" stroke-width="1.2" width="104.28571428571429" x="463.57142857142856" y="725" /><text fill="#333333" font-family="DejaVu Sans" font-size="15" font-weight="normal" text-anchor="middle" x="515.7142857142857" y="748">Top30</text><rect fill="white" height="34" stroke="#BFC7CE" stroke-width="1.2" width="104.28571428571429" x="463.57142857142856" y="759" /><text fill="#333333" font-family="DejaVu Sans" font-size="15" font-weight="normal" text-anchor="middle" x="515.7142857142857" y="782">30</text><rect fill="white" height="34" stroke="#BFC7CE" stroke-width="1.2" width="104.28571428571429" x="567.8571428571429" y="725" /><text fill="#333333" font-family="DejaVu Sans" font-size="15" font-weight="normal" text-anchor="middle" x="620.0" y="748">Top40</text><rect fill="white" height="34" stroke="#BFC7CE" stroke-width="1.2" width="104.28571428571429" x="567.8571428571429" y="759" /><text fill="#333333" font-family="DejaVu Sans" font-size="15" font-weight="normal" text-anchor="middle" x="620.0" y="782">40</text><rect fill="white" height="34" stroke="#BFC7CE" stroke-width="1.2" width="104.28571428571429" x="672.1428571428571" y="725" /><text fill="#333333" font-family="DejaVu Sans" font-size="15" font-weight="normal" text-anchor="middle" x="724.2857142857142" y="748">Top50</text><rect fill="white" height="34" stroke="#BFC7CE" stroke-width="1.2" width="104.28571428571429" x="672.1428571428571" y="759" /><text fill="#333333" font-family="DejaVu Sans" font-size="15" font-weight="normal" text-anchor="middle" x="724.2857142857142" y="782">50</text><rect fill="white" height="34" stroke="#BFC7CE" stroke-width="1.2" width="104.28571428571429" x="776.4285714285714" y="725" /><text fill="#333333" font-family="DejaVu Sans" font-size="15" font-weight="normal" text-anchor="middle" x="828.5714285714286" y="748">Top60</text><rect fill="white" height="34" stroke="#BFC7CE" stroke-width="1.2" width="104.28571428571429" x="776.4285714285714" y="759" /><text fill="#333333" font-family="DejaVu Sans" font-size="15" font-weight="normal" text-anchor="middle" x="828.5714285714286" y="782">60</text><rect fill="white" height="34" stroke="#BFC7CE" stroke-width="1.2" width="104.28571428571429" x="880.7142857142858" y="725" /><text fill="#333333" font-family="DejaVu Sans" font-size="15" font-weight="normal" text-anchor="middle" x="932.8571428571429" y="748">All</text><rect fill="white" height="34" stroke="#BFC7CE" stroke-width="1.2" width="104.28571428571429" x="880.7142857142858" y="759" /><text fill="#333333" font-family="DejaVu Sans" font-size="15" font-weight="normal" text-anchor="middle" x="932.8571428571429" y="782">87</text><text fill="#045694" font-family="DejaVu Sans" font-size="19" font-weight="bold" text-anchor="middle" x="625.0" y="900">Figura 4.</text><text fill="#333333" font-family="DejaVu Sans" font-size="17" font-weight="normal" text-anchor="middle" x="625.0" y="928">Evolución del F1 Macro según la cantidad de variables. Top30 se selecciona por su equilibrio entre desempeño y complejidad.</text></svg>