<?xml version="1.0" encoding="utf-8" ?>
<svg baseProfile="full" height="1020" version="1.1" width="900" xmlns="http://www.w3.org/2000/svg" xmlns:ev="http://www.w3.org/2001/xml-events" xmlns:xlink="http://www.w3.org/1999/xlink"><defs /><rect fill="white" height="1020" width="900" x="0" y="0" /><text fill="#045694" font-family="DejaVu Sans" font-size="40" font-weight="bold" text-anchor="middle" x="450.0" y="70">PROCESO DE ENTRENAMIENTO</text><text fill="#333333" font-family="DejaVu Sans" font-size="23" font-weight="normal" text-anchor="middle" x="450.0" y="110">De los datos históricos al modelo campeón</text><line stroke="#045694" stroke-linecap="round" stroke-width="5" x1="385.0" x2="515.0" y1="132" y2="132" /><rect fill="white" height="100" rx="18" ry="18" stroke="#045694" stroke-width="2" width="660" x="120" y="160" /><rect fill="#EAF3FA" height="64" rx="14" ry="14" stroke="none" width="96" x="144" y="178" /><g transform="translate(169.0,187.0) scale(1.9166666666666667)"><path d="M3 12a9 9 0 1 0 9-9 9.75 9.75 0 0 0-6.74 2.74L3 8" fill="none" stroke="#045694" stroke-linecap="round" stroke-linejoin="round" stroke-width="2" /><path d="M3 3v5h5" fill="none" stroke="#045694" stroke-linecap="round" stroke-linejoin="round" stroke-width="2" /><path d="M12 7v5l4 2" fill="none" stroke="#045694" stroke-linecap="round" stroke-linejoin="round" stroke-width="2" /></g><text fill="#045694" font-family="DejaVu Sans" font-size="25" font-weight="bold" text-anchor="start" x="270" y="200">DATOS HISTÓRICOS</text><text fill="#333333" font-family="DejaVu Sans" font-size="19" font-weight="normal" text-anchor="start" x="270" y="230">partidos ya disputados</text><text fill="#333333" font-family="DejaVu Sans" font-size="19" font-weight="normal" text-anchor="start" x="270" y="256">fuentes previamente validadas</text><rect fill="white" height="100" rx="18" ry="18" stroke="#045694" stroke-width="2" width="660" x="120" y="288" /><rect fill="#EAF3FA" height="64" rx="14" ry="14" stroke="none" width="96" x="144" y="306" /><g transform="translate(169.0,315.0) scale(1.9166666666666667)"><path d="M12 17v4" fill="none" stroke="#045694" stroke-linecap="round" stroke-linejoin="round" stroke-width="2" /><path d="M12 5V3" fill="none" stroke="#045694" stroke-linecap="round" stroke-linejoin="round" stroke-width="2" /><path d="M12 9v3" fill="none" stroke="#045694" stroke-linecap="round" stroke-linejoin="round" stroke-width="2" /><path d="M2.077 18.449A2 2 0 0 0 4 21h16a2 2 0 0 0 1.924-2.55l-4-14A2 2 0 0 0 16 3H8a2 2 0 0 0-1.924 1.45z" fill="none" stroke="#045694" stroke-linecap="round" stroke-linejoin="round" stroke-width="2" /></g><text fill="#045694" font-family="DejaVu Sans" font-size="25" font-weight="bold" text-anchor="start" x="270" y="328">DATASET DE ENTRENAMIENTO</text><text fill="#333333" font-family="DejaVu Sans" font-size="19" font-weight="normal" text-anchor="start" x="270" y="358">integración de fuentes</text><text fill="#333333" font-family="DejaVu Sans" font-size="19" font-weight="normal" text-anchor="start" x="270" y="384">target HOME · DRAW · AWAY</text><rect fill="white" height="100" rx="18" ry="18" stroke="#045694" stroke-width="2" width="660" x="120" y="416" /><rect fill="#EAF3FA" height="64" rx="14" ry="14" stroke="none" width="96" x="144" y="434" /><g transform="translate(169.0,443.0) scale(1.9166666666666667)"><path d="M11.42 15.17 17.25 21A2.652 2.652 0 0 0 21 17.25l-5.877-5.877M11.42 15.17l2.496-3.03c.317-.384.74-.626 1.208-.766M11.42 15.17l-4.655 5.653a2.548 2.548 0 1 1-3.586-3.586l6.837-5.63m5.108-.233c.55-.164 1.163-.188 1.743-.14a4.5 4.5 0 0 0 4.486-6.336l-3.276 3.277a3.004 3.004 0 0 1-2.25-2.25l3.276-3.276a4.5 4.5 0 0 0-6.336 4.486c.091 1.076-.071 2.264-.904 2.95l-.102.085m-1.745 1.437L5.909 7.5H4.5L2.25 3.75l1.5-1.5L7.5 4.5v1.409l4.26 4.26m-1.745 1.437 1.745-1.437m6.615 8.206L15.75 15.75M4.867 19.125h.008v.008h-.008v-.008Z" fill="none" stroke="#045694" stroke-linecap="round" stroke-linejoin="round" stroke-width="2" /></g><text fill="#045694" font-family="DejaVu Sans" font-size="25" font-weight="bold" text-anchor="start" x="270" y="456">INGENIERÍA DE VARIABLES</text><text fill="#333333" font-family="DejaVu Sans" font-size="19" font-weight="normal" text-anchor="start" x="270" y="486">representación del partido</text><text fill="#333333" font-family="DejaVu Sans" font-size="19" font-weight="normal" text-anchor="start" x="270" y="512">fortaleza, jugadores y contexto</text><rect fill="white" height="100" rx="18" ry="18" stroke="#045694" stroke-width="2" width="660" x="120" y="544" /><rect fill="#EAF3FA" height="64" rx="14" ry="14" stroke="none" width="96" x="144" y="562" /><g transform="translate(169.0,571.0) scale(1.9166666666666667)"><path d="M10.5 6h9.75M10.5 6a1.5 1.5 0 1 1-3 0m3 0a1.5 1.5 0 1 0-3 0M3.75 6H7.5m3 12h9.75m-9.75 0a1.5 1.5 0 0 1-3 0m3 0a1.5 1.5 0 0 0-3 0m-3.75 0H7.5m9-6h3.75m-3.75 0a1.5 1.5 0 0 1-3 0m3 0a1.5 1.5 0 0 0-3 0m-9.75 0h9.75" fill="none" stroke="#045694" stroke-linecap="round" stroke-linejoin="round" stroke-width="2" /></g><text fill="#045694" font-family="DejaVu Sans" font-size="25" font-weight="bold" text-anchor="start" x="270" y="584">SELECCIÓN DE CARACTERÍSTICAS</text><text fill="#333333" font-family="DejaVu Sans" font-size="19" font-weight="normal" text-anchor="start" x="270" y="614">reducción de complejidad</text><text fill="#333333" font-family="DejaVu Sans" font-size="19" font-weight="normal" text-anchor="start" x="270" y="640">conjunto final de variables</text><rect fill="white" height="100" rx="18" ry="18" stroke="#045694" stroke-width="2" width="660" x="120" y="672" /><rect fill="#EAF3FA" height="64" rx="14" ry="14" stroke="none" width="96" x="144" y="690" /><g transform="translate(169.0,699.0) scale(1.9166666666666667)"><path d="m10.852 14.772-.383.923" fill="none" stroke="#045694" stroke-linecap="round" stroke-linejoin="round" stroke-width="2" /><path d="m10.852 9.228-.383-.923" fill="none" stroke="#045694" stroke-linecap="round" stroke-linejoin="round" stroke-width="2" /><path d="m13.148 14.772.382.924" fill="none" stroke="#045694" stroke-linecap="round" stroke-linejoin="round" stroke-width="2" /><path d="m13.531 8.305-.383.923" fill="none" stroke="#045694" stroke-linecap="round" stroke-linejoin="round" stroke-width="2" /><path d="m14.772 10.852.923-.383" fill="none" stroke="#045694" stroke-linecap="round" stroke-linejoin="round" stroke-width="2" /><path d="m14.772 13.148.923.383" fill="none" stroke="#045694" stroke-linecap="round" stroke-linejoin="round" stroke-width="2" /><path d="M17.598 6.5A3 3 0 1 0 12 5a3 3 0 0 0-5.63-1.446 3 3 0 0 0-.368 1.571 4 4 0 0 0-2.525 5.771" fill="none" stroke="#045694" stroke-linecap="round" stroke-linejoin="round" stroke-width="2" /><path d="M17.998 5.125a4 4 0 0 1 2.525 5.771" fill="none" stroke="#045694" stroke-linecap="round" stroke-linejoin="round" stroke-width="2" /><path d="M19.505 10.294a4 4 0 0 1-1.5 7.706" fill="none" stroke="#045694" stroke-linecap="round" stroke-linejoin="round" stroke-width="2" /><path d="M4.032 17.483A4 4 0 0 0 11.464 20c.18-.311.892-.311 1.072 0a4 4 0 0 0 7.432-2.516" fill="none" stroke="#045694" stroke-linecap="round" stroke-linejoin="round" stroke-width="2" /><path d="M4.5 10.291A4 4 0 0 0 6 18" fill="none" stroke="#045694" stroke-linecap="round" stroke-linejoin="round" stroke-width="2" /><path d="M6.002 5.125a3 3 0 0 0 .4 1.375" fill="none" stroke="#045694" stroke-linecap="round" stroke-linejoin="round" stroke-width="2" /><path d="m9.228 10.852-.923-.383" fill="none" stroke="#045694" stroke-linecap="round" stroke-linejoin="round" stroke-width="2" /><path d="m9.228 13.148-.923.383" fill="none" stroke="#045694" stroke-linecap="round" stroke-linejoin="round" stroke-width="2" /><circle cx="12" cy="12" fill="none" r="3" stroke="#045694" stroke-width="2" /></g><text fill="#045694" font-family="DejaVu Sans" font-size="25" font-weight="bold" text-anchor="start" x="270" y="712">ENTRENAMIENTO Y EVALUACIÓN</text><text fill="#333333" font-family="DejaVu Sans" font-size="19" font-weight="normal" text-anchor="start" x="270" y="742">comparación de modelos</text><text fill="#333333" font-family="DejaVu Sans" font-size="19" font-weight="normal" text-anchor="start" x="270" y="768">validación y métricas</text><rect fill="white" height="100" rx="18" ry="18" stroke="#045694" stroke-width="2" width="660" x="120" y="800" /><rect fill="#EAF3FA" height="64" rx="14" ry="14" stroke="none" width="96" x="144" y="818" /><g transform="translate(169.0,827.0) scale(1.9166666666666667)"><path d="M10 14.66v1.626a2 2 0 0 1-.976 1.696A5 5 0 0 0 7 21.978" fill="none" stroke="#045694" stroke-linecap="round" stroke-linejoin="round" stroke-width="2" /><path d="M14 14.66v1.626a2 2 0 0 0 .976 1.696A5 5 0 0 1 17 21.978" fill="none" stroke="#045694" stroke-linecap="round" stroke-linejoin="round" stroke-width="2" /><path d="M18 9h1.5a1 1 0 0 0 0-5H18" fill="none" stroke="#045694" stroke-linecap="round" stroke-linejoin="round" stroke-width="2" /><path d="M4 22h16" fill="none" stroke="#045694" stroke-linecap="round" stroke-linejoin="round" stroke-width="2" /><path d="M6 9a6 6 0 0 0 12 0V3a1 1 0 0 0-1-1H7a1 1 0 0 0-1 1z" fill="none" stroke="#045694" stroke-linecap="round" stroke-linejoin="round" stroke-width="2" /><path d="M6 9H4.5a1 1 0 0 1 0-5H6" fill="none" stroke="#045694" stroke-linecap="round" stroke-linejoin="round" stroke-width="2" /></g><text fill="#045694" font-family="DejaVu Sans" font-size="25" font-weight="bold" text-anchor="start" x="270" y="840">MODELO CAMPEÓN</text><text fill="#333333" font-family="DejaVu Sans" font-size="19" font-weight="normal" text-anchor="start" x="270" y="870">artefacto versionado</text><text fill="#333333" font-family="DejaVu Sans" font-size="19" font-weight="normal" text-anchor="start" x="270" y="896">listo para inferencia</text><line stroke="#045694" stroke-width="3" x1="450.0" x2="450.0" y1="268" y2="260" /><polygon fill="#045694" points="439.0,260 461.0,260 450.0,280" /><line stroke="#045694" stroke-width="3" x1="450.0" x2="450.0" y1="396" y2="388" /><polygon fill="#045694" points="439.0,388 461.0,388 450.0,408" /><line stroke="#045694" stroke-width="3" x1="450.0" x2="450.0" y1="524" y2="516" /><polygon fill="#045694" points="439.0,516 461.0,516 450.0,536" /><line stroke="#045694" stroke-width="3" x1="450.0" x2="450.0" y1="652" y2="644" /><polygon fill="#045694" points="439.0,644 461.0,644 450.0,664" /><line stroke="#045694" stroke-width="3" x1="450.0" x2="450.0" y1="780" y2="772" /><polygon fill="#045694" points="439.0,772 461.0,772 450.0,792" /><text fill="#045694" font-family="DejaVu Sans" font-size="19" font-weight="bold" text-anchor="middle" x="450.0" y="940">Figura 2.</text><text fill="#333333" font-family="DejaVu Sans" font-size="17" font-weight="normal" text-anchor="middle" x="450.0" y="968">Secuencia conceptual del pipeline histórico utilizado para construir y exportar el modelo campeón.</text></svg>