<?xml version="1.0" encoding="utf-8" ?>
<svg baseProfile="full" height="1020" version="1.1" width="900" xmlns="http://www.w3.org/2000/svg" xmlns:ev="http://www.w3.org/2001/xml-events" xmlns:xlink="http://www.w3.org/1999/xlink"><defs /><rect fill="white" height="1020" width="900" x="0" y="0" /><text fill="#045694" font-family="DejaVu Sans" font-size="40" font-weight="bold" text-anchor="middle" x="450.0" y="70">REPRESENTACIÓN DEL PROBLEMA</text><text fill="#333333" font-family="DejaVu Sans" font-size="23" font-weight="normal" text-anchor="middle" x="450.0" y="110">¿Cómo se convierte un partido de fútbol en una predicción?</text><line stroke="#045694" stroke-linecap="round" stroke-width="5" x1="385.0" x2="515.0" y1="132" y2="132" /><rect fill="white" height="100" rx="18" ry="18" stroke="#045694" stroke-width="2" width="660" x="120" y="170" /><rect fill="#EAF3FA" height="64" rx="14" ry="14" stroke="none" width="96" x="144" y="188" /><g transform="translate(169.0,197.0) scale(1.9166666666666667)"><path d="M18 21a8 8 0 0 0-16 0" fill="none" stroke="#045694" stroke-linecap="round" stroke-linejoin="round" stroke-width="2" /><circle cx="10" cy="8" fill="none" r="5" stroke="#045694" stroke-width="2" /><path d="M22 20c0-3.37-2-6.5-4-8a5 5 0 0 0-.45-8.3" fill="none" stroke="#045694" stroke-linecap="round" stroke-linejoin="round" stroke-width="2" /></g><text fill="#045694" font-family="DejaVu Sans" font-size="25" font-weight="bold" text-anchor="start" x="270" y="210">JUGADORES</text><text fill="#333333" font-family="DejaVu Sans" font-size="19" font-weight="normal" text-anchor="start" x="270" y="240">22 futbolistas del encuentro</text><text fill="#333333" font-family="DejaVu Sans" font-size="19" font-weight="normal" text-anchor="start" x="270" y="266">atributos individuales</text><rect fill="white" height="100" rx="18" ry="18" stroke="#045694" stroke-width="2" width="660" x="120" y="315" /><rect fill="#EAF3FA" height="64" rx="14" ry="14" stroke="none" width="96" x="144" y="333" /><g transform="translate(169.0,342.0) scale(1.9166666666666667)"><path d="M20 13c0 5-3.5 7.5-7.66 8.95a1 1 0 0 1-.67-.01C7.5 20.5 4 18 4 13V6a1 1 0 0 1 1-1c2 0 4.5-1.2 6.24-2.72a1.17 1.17 0 0 1 1.52 0C14.51 3.81 17 5 19 5a1 1 0 0 1 1 1z" fill="none" stroke="#045694" stroke-linecap="round" stroke-linejoin="round" stroke-width="2" /><path d="M12 22V2" fill="none" stroke="#045694" stroke-linecap="round" stroke-linejoin="round" stroke-width="2" /></g><text fill="#045694" font-family="DejaVu Sans" font-size="25" font-weight="bold" text-anchor="start" x="270" y="355">EQUIPOS</text><text fill="#333333" font-family="DejaVu Sans" font-size="19" font-weight="normal" text-anchor="start" x="270" y="385">representación agregada</text><text fill="#333333" font-family="DejaVu Sans" font-size="19" font-weight="normal" text-anchor="start" x="270" y="411">de los planteles</text><rect fill="white" height="120" rx="18" ry="18" stroke="#045694" stroke-width="2" width="660" x="120" y="460" /><rect fill="#EAF3FA" height="84" rx="14" ry="14" stroke="none" width="96" x="144" y="478" /><g transform="translate(169.0,497.0) scale(1.9166666666666667)"><path d="M8 2v4" fill="none" stroke="#045694" stroke-linecap="round" stroke-linejoin="round" stroke-width="2" /><path d="M16 2v4" fill="none" stroke="#045694" stroke-linecap="round" stroke-linejoin="round" stroke-width="2" /><rect fill="none" height="18" rx="2" ry="2" stroke="#045694" stroke-width="2" width="18" x="3" y="4" /><path d="M3 10h18" fill="none" stroke="#045694" stroke-linecap="round" stroke-linejoin="round" stroke-width="2" /><path d="M8 14h.01" fill="none" stroke="#045694" stroke-linecap="round" stroke-linejoin="round" stroke-width="2" /><path d="M12 14h.01" fill="none" stroke="#045694" stroke-linecap="round" stroke-linejoin="round" stroke-width="2" /><path d="M16 14h.01" fill="none" stroke="#045694" stroke-linecap="round" stroke-linejoin="round" stroke-width="2" /><path d="M8 18h.01" fill="none" stroke="#045694" stroke-linecap="round" stroke-linejoin="round" stroke-width="2" /><path d="M12 18h.01" fill="none" stroke="#045694" stroke-linecap="round" stroke-linejoin="round" stroke-width="2" /><path d="M16 18h.01" fill="none" stroke="#045694" stroke-linecap="round" stroke-linejoin="round" stroke-width="2" /></g><text fill="#045694" font-family="DejaVu Sans" font-size="25" font-weight="bold" text-anchor="start" x="270" y="500">PARTIDO</text><text fill="#333333" font-family="DejaVu Sans" font-size="19" font-weight="normal" text-anchor="start" x="270" y="530">representación del encuentro</text><text fill="#333333" font-family="DejaVu Sans" font-size="19" font-weight="normal" text-anchor="start" x="270" y="556">30 variables</text><line stroke="#BFC7CE" stroke-width="1.5" x1="575" x2="575" y1="482" y2="558" /><text fill="#333333" font-family="DejaVu Sans" font-size="16" font-weight="normal" text-anchor="start" x="605" y="497">• ELO</text><text fill="#333333" font-family="DejaVu Sans" font-size="16" font-weight="normal" text-anchor="start" x="605" y="520">• valor de mercado</text><text fill="#333333" font-family="DejaVu Sans" font-size="16" font-weight="normal" text-anchor="start" x="605" y="543">• forma reciente</text><text fill="#333333" font-family="DejaVu Sans" font-size="16" font-weight="normal" text-anchor="start" x="605" y="566">• perfil del plantel</text><rect fill="white" height="100" rx="18" ry="18" stroke="#045694" stroke-width="2" width="660" x="120" y="635" /><rect fill="#EAF3FA" height="64" rx="14" ry="14" stroke="none" width="96" x="144" y="653" /><g transform="translate(169.0,662.0) scale(1.9166666666666667)"><path d="M12 5a3 3 0 1 0-5.997.125 4 4 0 0 0-2.526 5.77 4 4 0 0 0 .556 6.588A4 4 0 1 0 12 18Z" fill="none" stroke="#045694" stroke-linecap="round" stroke-linejoin="round" stroke-width="2" /><path d="M9 13a4.5 4.5 0 0 0 3-4" fill="none" stroke="#045694" stroke-linecap="round" stroke-linejoin="round" stroke-width="2" /><path d="M6.003 5.125A3 3 0 0 0 6.401 6.5" fill="none" stroke="#045694" stroke-linecap="round" stroke-linejoin="round" stroke-width="2" /><path d="M3.477 10.896a4 4 0 0 1 .585-.396" fill="none" stroke="#045694" stroke-linecap="round" stroke-linejoin="round" stroke-width="2" /><path d="M6 18a4 4 0 0 1-1.967-.516" fill="none" stroke="#045694" stroke-linecap="round" stroke-linejoin="round" stroke-width="2" /><path d="M12 13h4" fill="none" stroke="#045694" stroke-linecap="round" stroke-linejoin="round" stroke-width="2" /><path d="M12 18h6a2 2 0 0 1 2 2v1" fill="none" stroke="#045694" stroke-linecap="round" stroke-linejoin="round" stroke-width="2" /><path d="M12 8h8" fill="none" stroke="#045694" stroke-linecap="round" stroke-linejoin="round" stroke-width="2" /><path d="M16 8V5a2 2 0 0 1 2-2" fill="none" stroke="#045694" stroke-linecap="round" stroke-linejoin="round" stroke-width="2" /><circle cx="16" cy="13" fill="none" r="0.5" stroke="#045694" stroke-width="2" /><circle cx="18" cy="3" fill="none" r="0.5" stroke="#045694" stroke-width="2" /><circle cx="20" cy="21" fill="none" r="0.5" stroke="#045694" stroke-width="2" /><circle cx="20" cy="8" fill="none" r="0.5" stroke="#045694" stroke-width="2" /></g><text fill="#045694" font-family="DejaVu Sans" font-size="25" font-weight="bold" text-anchor="start" x="270" y="675">MODELO</text><text fill="#333333" font-family="DejaVu Sans" font-size="19" font-weight="normal" text-anchor="start" x="270" y="705">modelo de Machine Learning</text><text fill="#333333" font-family="DejaVu Sans" font-size="19" font-weight="normal" text-anchor="start" x="270" y="731">entrenado sobre datos históricos</text><rect fill="white" height="100" rx="18" ry="18" stroke="#045694" stroke-width="2" width="660" x="120" y="780" /><rect fill="#EAF3FA" height="64" rx="14" ry="14" stroke="none" width="96" x="144" y="798" /><g transform="translate(169.0,807.0) scale(1.9166666666666667)"><path d="m12 8 6-3-6-3v10" fill="none" stroke="#045694" stroke-linecap="round" stroke-linejoin="round" stroke-width="2" /><path d="m8 11.99-5.5 3.14a1 1 0 0 0 0 1.74l8.5 4.86a2 2 0 0 0 2 0l8.5-4.86a1 1 0 0 0 0-1.74L16 12" fill="none" stroke="#045694" stroke-linecap="round" stroke-linejoin="round" stroke-width="2" /><path d="m6.49 12.85 11.02 6.3" fill="none" stroke="#045694" stroke-linecap="round" stroke-linejoin="round" stroke-width="2" /><path d="M17.51 12.85 6.5 19.15" fill="none" stroke="#045694" stroke-linecap="round" stroke-linejoin="round" stroke-width="2" /></g><text fill="#045694" font-family="DejaVu Sans" font-size="25" font-weight="bold" text-anchor="start" x="270" y="820">PREDICCIÓN</text><text fill="#333333" font-family="DejaVu Sans" font-size="19" font-weight="normal" text-anchor="start" x="270" y="850">probabilidades de resultado</text><text fill="#333333" font-family="DejaVu Sans" font-size="19" font-weight="normal" text-anchor="start" x="270" y="876">HOME · DRAW · AWAY</text><line stroke="#045694" stroke-width="3" x1="450.0" x2="450.0" y1="278" y2="287" /><polygon fill="#045694" points="439.0,287 461.0,287 450.0,307" /><line stroke="#045694" stroke-width="3" x1="450.0" x2="450.0" y1="423" y2="432" /><polygon fill="#045694" points="439.0,432 461.0,432 450.0,452" /><line stroke="#045694" stroke-width="3" x1="450.0" x2="450.0" y1="588" y2="607" /><polygon fill="#045694" points="439.0,607 461.0,607 450.0,627" /><line stroke="#045694" stroke-width="3" x1="450.0" x2="450.0" y1="743" y2="752" /><polygon fill="#045694" points="439.0,752 461.0,752 450.0,772" /><text fill="#045694" font-family="DejaVu Sans" font-size="19" font-weight="bold" text-anchor="middle" x="450.0" y="940">Figura 1.</text><text fill="#333333" font-family="DejaVu Sans" font-size="17" font-weight="normal" text-anchor="middle" x="450.0" y="968">Representación conceptual del flujo de información desde los jugadores hasta la predicción del modelo.</text></svg>