<?xml version="1.0" encoding="utf-8" ?>
<svg baseProfile="full" height="1200" version="1.1" width="1200" xmlns="http://www.w3.org/2000/svg" xmlns:ev="http://www.w3.org/2001/xml-events" xmlns:xlink="http://www.w3.org/1999/xlink"><defs /><rect fill="white" height="1200" width="1200" x="0" y="0" /><text fill="#045694" font-family="DejaVu Sans" font-size="40" font-weight="bold" text-anchor="middle" x="600.0" y="70">ARQUITECTURA GENERAL DEL SISTEMA</text><text fill="#333333" font-family="DejaVu Sans" font-size="23" font-weight="normal" text-anchor="middle" x="600.0" y="110">Entrenamiento e inferencia</text><line stroke="#045694" stroke-linecap="round" stroke-width="5" x1="535.0" x2="665.0" y1="132" y2="132" /><rect fill="white" height="82" rx="16" ry="16" stroke="#045694" stroke-width="2" width="500" x="350.0" y="155" /><rect fill="#EAF3FA" height="50" rx="13" ry="13" stroke="none" width="76" x="370.0" y="171" /><g transform="translate(387.0,175.0) scale(1.75)"><path d="M21 11.693V5" fill="none" stroke="#045694" stroke-linecap="round" stroke-linejoin="round" stroke-width="2" /><path d="m22 22-1.875-1.875" fill="none" stroke="#045694" stroke-linecap="round" stroke-linejoin="round" stroke-width="2" /><path d="M3 12a9 3 0 0 0 8.697 2.998" fill="none" stroke="#045694" stroke-linecap="round" stroke-linejoin="round" stroke-width="2" /><path d="M3 5v14a9 3 0 0 0 9.28 2.999" fill="none" stroke="#045694" stroke-linecap="round" stroke-linejoin="round" stroke-width="2" /><circle cx="18" cy="18" fill="none" r="3" stroke="#045694" stroke-width="2" /></g><text fill="#045694" font-family="DejaVu Sans" font-size="22" font-weight="bold" text-anchor="start" x="470.0" y="190">TRANSFERMARKT</text><text fill="#333333" font-family="DejaVu Sans" font-size="17" font-weight="normal" text-anchor="start" x="470.0" y="217">scraping independiente</text><rect fill="white" height="82" rx="16" ry="16" stroke="#045694" stroke-width="2" width="500" x="350.0" y="260" /><rect fill="#EAF3FA" height="50" rx="13" ry="13" stroke="none" width="76" x="370.0" y="276" /><g transform="translate(387.0,280.0) scale(1.75)"><path d="M3 12a9 9 0 1 0 9-9 9.75 9.75 0 0 0-6.74 2.74L3 8" fill="none" stroke="#045694" stroke-linecap="round" stroke-linejoin="round" stroke-width="2" /><path d="M3 3v5h5" fill="none" stroke="#045694" stroke-linecap="round" stroke-linejoin="round" stroke-width="2" /><path d="M12 7v5l4 2" fill="none" stroke="#045694" stroke-linecap="round" stroke-linejoin="round" stroke-width="2" /></g><text fill="#045694" font-family="DejaVu Sans" font-size="22" font-weight="bold" text-anchor="start" x="470.0" y="295">DATOS HISTÓRICOS</text><text fill="#333333" font-family="DejaVu Sans" font-size="17" font-weight="normal" text-anchor="start" x="470.0" y="322">partidos y planteles históricos</text><rect fill="white" height="82" rx="16" ry="16" stroke="#045694" stroke-width="2" width="500" x="350.0" y="365" /><rect fill="#EAF3FA" height="50" rx="13" ry="13" stroke="none" width="76" x="370.0" y="381" /><g transform="translate(387.0,385.0) scale(1.75)"><path d="M12 17v4" fill="none" stroke="#045694" stroke-linecap="round" stroke-linejoin="round" stroke-width="2" /><path d="M12 5V3" fill="none" stroke="#045694" stroke-linecap="round" stroke-linejoin="round" stroke-width="2" /><path d="M12 9v3" fill="none" stroke="#045694" stroke-linecap="round" stroke-linejoin="round" stroke-width="2" /><path d="M2.077 18.449A2 2 0 0 0 4 21h16a2 2 0 0 0 1.924-2.55l-4-14A2 2 0 0 0 16 3H8a2 2 0 0 0-1.924 1.45z" fill="none" stroke="#045694" stroke-linecap="round" stroke-linejoin="round" stroke-width="2" /></g><text fill="#045694" font-family="DejaVu Sans" font-size="22" font-weight="bold" text-anchor="start" x="470.0" y="400">PIPELINE HISTÓRICO</text><text fill="#333333" font-family="DejaVu Sans" font-size="17" font-weight="normal" text-anchor="start" x="470.0" y="427">construcción del dataset base</text><rect fill="white" height="82" rx="16" ry="16" stroke="#045694" stroke-width="2" width="500" x="350.0" y="470" /><rect fill="#EAF3FA" height="50" rx="13" ry="13" stroke="none" width="76" x="370.0" y="486" /><g transform="translate(387.0,490.0) scale(1.75)"><path d="M11.42 15.17 17.25 21A2.652 2.652 0 0 0 21 17.25l-5.877-5.877M11.42 15.17l2.496-3.03c.317-.384.74-.626 1.208-.766M11.42 15.17l-4.655 5.653a2.548 2.548 0 1 1-3.586-3.586l6.837-5.63m5.108-.233c.55-.164 1.163-.188 1.743-.14a4.5 4.5 0 0 0 4.486-6.336l-3.276 3.277a3.004 3.004 0 0 1-2.25-2.25l3.276-3.276a4.5 4.5 0 0 0-6.336 4.486c.091 1.076-.071 2.264-.904 2.95l-.102.085m-1.745 1.437L5.909 7.5H4.5L2.25 3.75l1.5-1.5L7.5 4.5v1.409l4.26 4.26m-1.745 1.437 1.745-1.437m6.615 8.206L15.75 15.75M4.867 19.125h.008v.008h-.008v-.008Z" fill="none" stroke="#045694" stroke-linecap="round" stroke-linejoin="round" stroke-width="2" /></g><text fill="#045694" font-family="DejaVu Sans" font-size="22" font-weight="bold" text-anchor="start" x="470.0" y="505">DATASET + VARIABLES</text><text fill="#333333" font-family="DejaVu Sans" font-size="17" font-weight="normal" text-anchor="start" x="470.0" y="532">representación del partido</text><rect fill="white" height="82" rx="16" ry="16" stroke="#045694" stroke-width="2" width="500" x="350.0" y="575" /><rect fill="#EAF3FA" height="50" rx="13" ry="13" stroke="none" width="76" x="370.0" y="591" /><g transform="translate(387.0,595.0) scale(1.75)"><path d="m10.852 14.772-.383.923" fill="none" stroke="#045694" stroke-linecap="round" stroke-linejoin="round" stroke-width="2" /><path d="m10.852 9.228-.383-.923" fill="none" stroke="#045694" stroke-linecap="round" stroke-linejoin="round" stroke-width="2" /><path d="m13.148 14.772.382.924" fill="none" stroke="#045694" stroke-linecap="round" stroke-linejoin="round" stroke-width="2" /><path d="m13.531 8.305-.383.923" fill="none" stroke="#045694" stroke-linecap="round" stroke-linejoin="round" stroke-width="2" /><path d="m14.772 10.852.923-.383" fill="none" stroke="#045694" stroke-linecap="round" stroke-linejoin="round" stroke-width="2" /><path d="m14.772 13.148.923.383" fill="none" stroke="#045694" stroke-linecap="round" stroke-linejoin="round" stroke-width="2" /><path d="M17.598 6.5A3 3 0 1 0 12 5a3 3 0 0 0-5.63-1.446 3 3 0 0 0-.368 1.571 4 4 0 0 0-2.525 5.771" fill="none" stroke="#045694" stroke-linecap="round" stroke-linejoin="round" stroke-width="2" /><path d="M17.998 5.125a4 4 0 0 1 2.525 5.771" fill="none" stroke="#045694" stroke-linecap="round" stroke-linejoin="round" stroke-width="2" /><path d="M19.505 10.294a4 4 0 0 1-1.5 7.706" fill="none" stroke="#045694" stroke-linecap="round" stroke-linejoin="round" stroke-width="2" /><path d="M4.032 17.483A4 4 0 0 0 11.464 20c.18-.311.892-.311 1.072 0a4 4 0 0 0 7.432-2.516" fill="none" stroke="#045694" stroke-linecap="round" stroke-linejoin="round" stroke-width="2" /><path d="M4.5 10.291A4 4 0 0 0 6 18" fill="none" stroke="#045694" stroke-linecap="round" stroke-linejoin="round" stroke-width="2" /><path d="M6.002 5.125a3 3 0 0 0 .4 1.375" fill="none" stroke="#045694" stroke-linecap="round" stroke-linejoin="round" stroke-width="2" /><path d="m9.228 10.852-.923-.383" fill="none" stroke="#045694" stroke-linecap="round" stroke-linejoin="round" stroke-width="2" /><path d="m9.228 13.148-.923.383" fill="none" stroke="#045694" stroke-linecap="round" stroke-linejoin="round" stroke-width="2" /><circle cx="12" cy="12" fill="none" r="3" stroke="#045694" stroke-width="2" /></g><text fill="#045694" font-family="DejaVu Sans" font-size="22" font-weight="bold" text-anchor="start" x="470.0" y="610">ENTRENAMIENTO</text><text fill="#333333" font-family="DejaVu Sans" font-size="17" font-weight="normal" text-anchor="start" x="470.0" y="637">comparación y validación de modelos</text><line stroke="#045694" stroke-linecap="round" stroke-width="3" x1="600.0" x2="600.0" y1="243" y2="250" /><polygon fill="#045694" points="590.0,238 610.0,238 600.0,256" /><line stroke="#045694" stroke-linecap="round" stroke-width="3" x1="600.0" x2="600.0" y1="348" y2="355" /><polygon fill="#045694" points="590.0,343 610.0,343 600.0,361" /><line stroke="#045694" stroke-linecap="round" stroke-width="3" x1="600.0" x2="600.0" y1="453" y2="460" /><polygon fill="#045694" points="590.0,448 610.0,448 600.0,466" /><line stroke="#045694" stroke-linecap="round" stroke-width="3" x1="600.0" x2="600.0" y1="558" y2="565" /><polygon fill="#045694" points="590.0,553 610.0,553 600.0,571" /><line stroke="#045694" stroke-linecap="round" stroke-width="3" x1="600.0" x2="600.0" y1="663" y2="680" /><polygon fill="#045694" points="590.0,668 610.0,668 600.0,686" /><rect fill="#FFF8E6" height="90" rx="16" ry="16" stroke="#B8860B" stroke-width="2" width="500" x="350.0" y="690" /><rect fill="#EAF3FA" height="58" rx="13" ry="13" stroke="none" width="76" x="370.0" y="706" /><g transform="translate(387.0,714.0) scale(1.75)"><path d="M10 14.66v1.626a2 2 0 0 1-.976 1.696A5 5 0 0 0 7 21.978" fill="none" stroke="#045694" stroke-linecap="round" stroke-linejoin="round" stroke-width="2" /><path d="M14 14.66v1.626a2 2 0 0 0 .976 1.696A5 5 0 0 1 17 21.978" fill="none" stroke="#045694" stroke-linecap="round" stroke-linejoin="round" stroke-width="2" /><path d="M18 9h1.5a1 1 0 0 0 0-5H18" fill="none" stroke="#045694" stroke-linecap="round" stroke-linejoin="round" stroke-width="2" /><path d="M4 22h16" fill="none" stroke="#045694" stroke-linecap="round" stroke-linejoin="round" stroke-width="2" /><path d="M6 9a6 6 0 0 0 12 0V3a1 1 0 0 0-1-1H7a1 1 0 0 0-1 1z" fill="none" stroke="#045694" stroke-linecap="round" stroke-linejoin="round" stroke-width="2" /><path d="M6 9H4.5a1 1 0 0 1 0-5H6" fill="none" stroke="#045694" stroke-linecap="round" stroke-linejoin="round" stroke-width="2" /></g><text fill="#B8860B" font-family="DejaVu Sans" font-size="22" font-weight="bold" text-anchor="start" x="470.0" y="725">CHAMPION MODEL</text><text fill="#333333" font-family="DejaVu Sans" font-size="17" font-weight="normal" text-anchor="start" x="470.0" y="752">modelo campeón versionado</text><line stroke="#BFC7CE" stroke-dasharray="8,8" stroke-width="3" x1="120" x2="1080" y1="795" y2="795" /><line stroke="#045694" stroke-width="2" x1="955.0" x2="1155.0" y1="330" y2="330" /><text fill="#045694" font-family="DejaVu Sans" font-size="20" font-weight="bold" text-anchor="middle" x="1055" y="364">ENTRENAMIENTO</text><line stroke="#045694" stroke-width="2" x1="955.0" x2="1155.0" y1="382" y2="382" /><text fill="#045694" font-family="DejaVu Sans" font-size="16" font-weight="normal" text-anchor="middle" x="1055" y="412">offline</text><line stroke="#045694" stroke-width="2" x1="955.0" x2="1155.0" y1="1025" y2="1025" /><text fill="#045694" font-family="DejaVu Sans" font-size="20" font-weight="bold" text-anchor="middle" x="1055" y="1059">INFERENCIA</text><line stroke="#045694" stroke-width="2" x1="955.0" x2="1155.0" y1="1077" y2="1077" /><text fill="#045694" font-family="DejaVu Sans" font-size="16" font-weight="normal" text-anchor="middle" x="1055" y="1107">online / batch</text><line stroke="#045694" stroke-width="3" x1="600.0" x2="600.0" y1="780" y2="830" /><line stroke="#045694" stroke-width="3" x1="360" x2="840" y1="830" y2="830" /><line stroke="#045694" stroke-linecap="round" stroke-width="3" x1="360" x2="360" y1="830" y2="872" /><polygon fill="#045694" points="350,860 370,860 360,878" /><line stroke="#045694" stroke-linecap="round" stroke-width="3" x1="840" x2="840" y1="830" y2="872" /><polygon fill="#045694" points="830,860 850,860 840,878" /><rect fill="white" height="100" rx="16" ry="16" stroke="#045694" stroke-width="2" width="440" x="140.0" y="880" /><rect fill="#EAF3FA" height="68" rx="13" ry="13" stroke="none" width="76" x="160.0" y="896" /><g transform="translate(177.0,909.0) scale(1.75)"><path d="M12 17v4" fill="none" stroke="#045694" stroke-linecap="round" stroke-linejoin="round" stroke-width="2" /><path d="M12 5V3" fill="none" stroke="#045694" stroke-linecap="round" stroke-linejoin="round" stroke-width="2" /><path d="M12 9v3" fill="none" stroke="#045694" stroke-linecap="round" stroke-linejoin="round" stroke-width="2" /><path d="M2.077 18.449A2 2 0 0 0 4 21h16a2 2 0 0 0 1.924-2.55l-4-14A2 2 0 0 0 16 3H8a2 2 0 0 0-1.924 1.45z" fill="none" stroke="#045694" stroke-linecap="round" stroke-linejoin="round" stroke-width="2" /></g><text fill="#045694" font-family="DejaVu Sans" font-size="22" font-weight="bold" text-anchor="start" x="260.0" y="915">PIPELINE DE INFERENCIA</text><text fill="#333333" font-family="DejaVu Sans" font-size="17" font-weight="normal" text-anchor="start" x="260.0" y="942">Construcción del scoring dataset</text><text fill="#333333" font-family="DejaVu Sans" font-size="17" font-weight="normal" text-anchor="start" x="260.0" y="966">Predicción por lotes</text><rect fill="white" height="100" rx="16" ry="16" stroke="#045694" stroke-width="2" width="440" x="620.0" y="880" /><rect fill="#EAF3FA" height="68" rx="13" ry="13" stroke="none" width="76" x="640.0" y="896" /><g transform="translate(657.0,909.0) scale(1.75)"><path d="M6 9a.5.5 0 0 1 .5-.5h3a.5.5 0 0 1 0 1h-3A.5.5 0 0 1 6 9" fill="none" stroke="#045694" stroke-linecap="round" stroke-linejoin="round" stroke-width="2" /><path d="M3.854 4.146a.5.5 0 1 0-.708.708L4.793 6.5 3.146 8.146a.5.5 0 1 0 .708.708l2-2a.5.5 0 0 0 0-.708z" fill="none" stroke="#045694" stroke-linecap="round" stroke-linejoin="round" stroke-width="2" /><path d="M2 1a2 2 0 0 0-2 2v10a2 2 0 0 0 2 2h12a2 2 0 0 0 2-2V3a2 2 0 0 0-2-2zm12 1a1 1 0 0 1 1 1v10a1 1 0 0 1-1 1H2a1 1 0 0 1-1-1V3a1 1 0 0 1 1-1z" fill="none" stroke="#045694" stroke-linecap="round" stroke-linejoin="round" stroke-width="2" /></g><text fill="#045694" font-family="DejaVu Sans" font-size="22" font-weight="bold" text-anchor="start" x="740.0" y="915">API REST</text><text fill="#333333" font-family="DejaVu Sans" font-size="17" font-weight="normal" text-anchor="start" x="740.0" y="942">Predicción online</text><text fill="#333333" font-family="DejaVu Sans" font-size="17" font-weight="normal" text-anchor="start" x="740.0" y="966">Endpoint REST</text><line stroke="#045694" stroke-width="3" x1="360" x2="360" y1="980" y2="990" /><line stroke="#045694" stroke-width="3" x1="840" x2="840" y1="980" y2="990" /><line stroke="#045694" stroke-width="3" x1="360" x2="840" y1="990" y2="990" /><line stroke="#045694" stroke-linecap="round" stroke-width="3" x1="600.0" x2="600.0" y1="990" y2="998" /><polygon fill="#045694" points="590.0,986 610.0,986 600.0,1004" /><rect fill="white" height="90" rx="16" ry="16" stroke="#045694" stroke-width="2" width="500" x="350.0" y="1010" /><rect fill="#EAF3FA" height="58" rx="13" ry="13" stroke="none" width="76" x="370.0" y="1026" /><g transform="translate(387.0,1034.0) scale(1.75)"><path d="m12 8 6-3-6-3v10" fill="none" stroke="#045694" stroke-linecap="round" stroke-linejoin="round" stroke-width="2" /><path d="m8 11.99-5.5 3.14a1 1 0 0 0 0 1.74l8.5 4.86a2 2 0 0 0 2 0l8.5-4.86a1 1 0 0 0 0-1.74L16 12" fill="none" stroke="#045694" stroke-linecap="round" stroke-linejoin="round" stroke-width="2" /><path d="m6.49 12.85 11.02 6.3" fill="none" stroke="#045694" stroke-linecap="round" stroke-linejoin="round" stroke-width="2" /><path d="M17.51 12.85 6.5 19.15" fill="none" stroke="#045694" stroke-linecap="round" stroke-linejoin="round" stroke-width="2" /></g><text fill="#045694" font-family="DejaVu Sans" font-size="22" font-weight="bold" text-anchor="start" x="470.0" y="1045">PREDICCIONES</text><text fill="#333333" font-family="DejaVu Sans" font-size="17" font-weight="normal" text-anchor="start" x="470.0" y="1072">probabilidades de resultado</text><text fill="#333333" font-family="DejaVu Sans" font-size="17" font-weight="normal" text-anchor="start" x="470.0" y="1096">HOME · DRAW · AWAY</text><text fill="#045694" font-family="DejaVu Sans" font-size="19" font-weight="bold" text-anchor="middle" x="600.0" y="1135">Figura 3.</text><text fill="#333333" font-family="DejaVu Sans" font-size="17" font-weight="normal" text-anchor="middle" x="600.0" y="1163">Arquitectura general del sistema: desde la recolección de datos históricos hasta la generación de predicciones.</text></svg>